<svg width="64" height="64" viewBox="0 0 64 64" fill="none" xmlns="http://www.w3.org/2000/svg">
<path d="M17.6245 50.4615V52H19.1753V50.4615H17.6245Z" fill="#212833"/>
<path d="M22.5722 50.4615H21.0276V52H22.5722V50.4615Z" fill="#212833"/>
<path d="M24.4307 50.4615V52H25.9753V50.4615H24.4307Z" fill="#212833"/>
<path d="M29.3784 50.4615H27.8337V52H29.3784V50.4615Z" fill="#212833"/>
<path d="M10.8184 50.4615V52H12.3691V50.4615H10.8184Z" fill="#212833"/>
<path d="M15.7661 50.4615H14.2214V52H15.7661V50.4615Z" fill="#212833"/>
<path d="M5.56317 50.4615H4.01855V52H5.56317V50.4615Z" fill="#212833"/>
<path d="M8.9599 50.4615H7.41528V52H8.9599V50.4615Z" fill="#212833"/>
<path d="M31.2368 50.4615V52H32.7814V50.4615H31.2368Z" fill="#212833"/>
<path d="M36.1845 50.4615H34.6399V52H36.1845V50.4615Z" fill="#212833"/>
<path d="M38.0369 50.4615V52H39.5876V50.4615H38.0369Z" fill="#212833"/>
<path d="M42.9846 50.4615H41.4399V52H42.9846V50.4615Z" fill="#212833"/>
<path d="M44.843 50.4615V52H46.3938V50.4615H44.843Z" fill="#212833"/>
<path d="M49.7907 50.4615H48.2461V52H49.7907V50.4615Z" fill="#212833"/>
<path d="M51.6492 50.4615V52H53.1938V50.4615H51.6492Z" fill="#212833"/>
<path d="M56.5969 50.4615H55.0522V52H56.5969V50.4615Z" fill="#212833"/>
<path d="M59.9999 50.4615H58.4553V52H59.9999V50.4615Z" fill="#212833"/>
<path d="M60 40.4984H4V42.0369H60V40.4984Z" fill="#212833"/>
<path d="M17.6245 27.3293V28.8678H19.1753V27.3293H17.6245Z" fill="#212833"/>
<path d="M22.5722 27.3293H21.0276V28.8678H22.5722V27.3293Z" fill="#212833"/>
<path d="M24.4307 27.3293V28.8678H25.9753V27.3293H24.4307Z" fill="#212833"/>
<path d="M29.3784 27.3293H27.8337V28.8678H29.3784V27.3293Z" fill="#212833"/>
<path d="M10.8184 27.3293V28.8678H12.3691V27.3293H10.8184Z" fill="#212833"/>
<path d="M15.7661 27.3293H14.2214V28.8678H15.7661V27.3293Z" fill="#212833"/>
<path d="M5.56317 27.3293H4.01855V28.8678H5.56317V27.3293Z" fill="#212833"/>
<path d="M8.9599 27.3293H7.41528V28.8678H8.9599V27.3293Z" fill="#212833"/>
<path d="M31.2368 27.3293V28.8678H32.7814V27.3293H31.2368Z" fill="#212833"/>
<path d="M36.1845 27.3293H34.6399V28.8678H36.1845V27.3293Z" fill="#212833"/>
<path d="M38.0369 27.3293V28.8678H39.5876V27.3293H38.0369Z" fill="#212833"/>
<path d="M42.9846 27.3293H41.4399V28.8678H42.9846V27.3293Z" fill="#212833"/>
<path d="M44.843 27.3293V28.8678H46.3938V27.3293H44.843Z" fill="#212833"/>
<path d="M49.7907 27.3293H48.2461V28.8678H49.7907V27.3293Z" fill="#212833"/>
<path d="M51.6492 27.3293V28.8678H53.1938V27.3293H51.6492Z" fill="#212833"/>
<path d="M56.5969 27.3293H55.0522V28.8678H56.5969V27.3293Z" fill="#212833"/>
<path d="M59.9999 27.3293H58.4553V28.8678H59.9999V27.3293Z" fill="#212833"/>
<path d="M60 17.3662H4V18.9047H60V17.3662Z" fill="#212833"/>
<path d="M17.2307 10.4615V21.1815L21.8338 25.7908L26.4369 21.1815V10.4615H17.2307Z" fill="url(#paint0_linear)"/>
<path d="M19.5876 17.3785V18.8985H24.0123L24.0184 17.3785H19.5876Z" fill="#212833"/>
<path d="M21.8031 13.7539C21.4571 13.7571 21.1262 13.8965 20.882 14.1417C20.6379 14.387 20.5001 14.7186 20.4985 15.0647C20.4985 15.3256 20.5761 15.5807 20.7214 15.7976C20.8666 16.0144 21.073 16.1832 21.3144 16.2825C21.5557 16.3818 21.8211 16.4071 22.0769 16.3553C22.3327 16.3035 22.5673 16.1768 22.751 15.9914C22.9347 15.806 23.0591 15.5702 23.1086 15.314C23.158 15.0577 23.1301 14.7925 23.0286 14.5521C22.927 14.3117 22.7563 14.1069 22.5381 13.9637C22.3199 13.8205 22.0641 13.7453 21.8031 13.7477V13.7539Z" fill="#212833"/>
<path d="M37.6123 33.6123V44.3077L42.2154 48.9231L46.8185 44.3077V33.6123H37.6123Z" fill="url(#paint1_linear)"/>
<path d="M40 40.5045V42.0245H44.4246L44.4308 40.5045H40Z" fill="#212833"/>
<path d="M42.2153 36.88C41.8692 36.8832 41.5383 37.0226 41.2942 37.2678C41.05 37.5131 40.9122 37.8447 40.9106 38.1908C40.9107 38.4517 40.9882 38.7068 41.1335 38.9237C41.2787 39.1405 41.4851 39.3093 41.7265 39.4086C41.9678 39.5079 42.2333 39.5332 42.489 39.4814C42.7448 39.4296 42.9795 39.3029 43.1631 39.1175C43.3468 38.9321 43.4713 38.6963 43.5207 38.4401C43.5701 38.1838 43.5422 37.9186 43.4407 37.6782C43.3391 37.4378 43.1684 37.233 42.9502 37.0898C42.732 36.9466 42.4762 36.8714 42.2153 36.8738V36.88Z" fill="#212833"/>
<defs>
<linearGradient id="paint0_linear" x1="16.8246" y1="20.8123" x2="26.7815" y2="10.8554" gradientUnits="userSpaceOnUse">
<stop stop-color="#F0B90B"/>
<stop offset="0.28" stop-color="#F1BC0F"/>
<stop offset="0.57" stop-color="#F4C41C"/>
<stop offset="0.86" stop-color="#F8D230"/>
<stop offset="0.99" stop-color="#FBDA3C"/>
</linearGradient>
<linearGradient id="paint1_linear" x1="594.677" y1="1126.95" x2="813.481" y2="995.391" gradientUnits="userSpaceOnUse">
<stop stop-color="#F0B90B"/>
<stop offset="0.28" stop-color="#F1BC0F"/>
<stop offset="0.57" stop-color="#F4C41C"/>
<stop offset="0.86" stop-color="#F8D230"/>
<stop offset="0.99" stop-color="#FBDA3C"/>
</linearGradient>
</defs>
</svg>
