<svg width="64" height="64" viewBox="0 0 64 64" fill="none" xmlns="http://www.w3.org/2000/svg">
<path d="M32 44.1292C29.6001 44.1267 27.2549 43.4128 25.2607 42.0776C23.2665 40.7424 21.713 38.8459 20.7966 36.6278C19.8802 34.4098 19.642 31.9699 20.1121 29.6165C20.5822 27.2631 21.7396 25.1019 23.4379 23.4063C25.1361 21.7106 27.299 20.5565 29.6531 20.0899C32.0072 19.6234 34.4468 19.8653 36.6635 20.7851C38.8801 21.7049 40.7742 23.2613 42.1064 25.2575C43.4386 27.2537 44.1489 29.6 44.1477 31.9999C44.1428 35.2185 42.8608 38.3036 40.5832 40.5777C38.3056 42.8519 35.2186 44.1292 32 44.1292Z" fill="url(#paint0_linear)"/>
<path d="M32.4431 62.0554V60.517C32.9477 60.517 33.4462 60.517 33.9447 60.4554L34.0431 61.9939C33.4954 62.0308 32.9723 62.0493 32.4431 62.0554Z" fill="#212833"/>
<path d="M35.9078 61.8092L35.6924 60.3077C36.1908 60.24 36.6832 60.1662 37.1693 60.0739L37.4524 61.5877C36.9539 61.6554 36.4247 61.7415 35.9078 61.8092Z" fill="#212833"/>
<path d="M39.3168 61.1569L38.9353 59.6923C39.4215 59.5692 39.9076 59.4338 40.3815 59.2861L40.8368 60.7569C40.3322 60.8861 39.8215 61.0277 39.3168 61.1569Z" fill="#212833"/>
<path d="M42.6278 60.117L42.0801 58.677C42.5478 58.4985 43.0093 58.3078 43.4585 58.1108L44.0739 59.5139C43.6062 59.7293 43.1139 59.9262 42.6278 60.117Z" fill="#212833"/>
<path d="M45.7908 58.6954L45.0769 57.3293C45.52 57.1036 45.9569 56.8636 46.3877 56.6093L47.1692 57.9323C46.72 58.1969 46.2523 58.4616 45.7908 58.6954Z" fill="#212833"/>
<path d="M48.7693 56.923L47.9077 55.6492C48.32 55.3723 48.7262 55.0769 49.1385 54.7815L50.0616 56.0123C49.6308 56.3261 49.2308 56.6153 48.7693 56.923Z" fill="#212833"/>
<path d="M51.526 54.8184L50.5229 53.6553C50.9045 53.3292 51.2737 52.9907 51.6368 52.6461L52.6953 53.76C52.3076 54.1538 51.926 54.48 51.526 54.8184Z" fill="#212833"/>
<path d="M54.0246 52.4124L52.9231 51.3662C53.2616 51.0031 53.5939 50.6278 53.9077 50.2462L55.0892 51.2308C54.7323 51.6308 54.3816 52.0308 54.0246 52.4124Z" fill="#212833"/>
<path d="M56.2339 49.7353L55.0032 48.8245C55.2986 48.4245 55.5816 48.0122 55.8586 47.5938L57.1447 48.443C56.8534 48.882 56.5498 49.3127 56.2339 49.7353Z" fill="#212833"/>
<path d="M58.123 46.8247L56.7876 46.0616C57.0338 45.6308 57.2676 45.1878 57.4953 44.7385L58.8676 45.4278C58.6338 45.9016 58.3814 46.3693 58.123 46.8247Z" fill="#212833"/>
<path d="M59.6922 43.6924L58.2769 43.077C58.4738 42.6154 58.6522 42.1539 58.8245 41.6801L60.2707 42.2093C60.0676 42.7324 59.8707 43.2308 59.6922 43.6924Z" fill="#212833"/>
<path d="M60.837 40.4369L59.3601 40C59.5016 39.5261 59.6309 39.04 59.7416 38.5538L61.2432 38.9108C61.1201 39.4215 60.9847 39.9323 60.837 40.4369Z" fill="#212833"/>
<path d="M61.6184 37.0523L60.0984 36.7939C60.1845 36.3077 60.2522 35.8093 60.3138 35.3108L61.8399 35.4893C61.7784 36.0123 61.7045 36.5354 61.6184 37.0523Z" fill="#212833"/>
<path d="M61.9999 33.6L60.4614 33.52C60.486 33.0277 60.4983 32.5293 60.4983 32.0247H62.0368C62.0368 32.5539 62.0245 33.0831 61.9999 33.6Z" fill="#212833"/>
<path d="M11.8524 11.8093L10.7632 10.72C11.1386 10.3447 11.5201 9.98773 11.9078 9.63696L12.9232 10.7754C12.5663 11.1077 12.2032 11.4523 11.8524 11.8093Z" fill="#212833"/>
<path d="M14.3076 9.6184L13.3538 8.38763C13.7661 8.06148 14.1907 7.74148 14.6153 7.43994L15.5076 8.67071C15.1015 9.00302 14.7015 9.30456 14.3076 9.6184Z" fill="#212833"/>
<path d="M17.0093 7.7231L16.197 6.41848C16.6401 6.14156 17.1016 5.87694 17.5632 5.62463L18.3016 6.97233C17.8463 7.21233 17.4339 7.46463 17.0093 7.7231Z" fill="#212833"/>
<path d="M19.9077 6.15381L19.2554 4.76919C19.7292 4.54765 20.2154 4.33227 20.7015 4.15381L21.28 5.53842C20.8184 5.74765 20.3569 5.95073 19.9077 6.15381Z" fill="#212833"/>
<path d="M22.9661 4.92312L22.48 3.46466C22.9784 3.29851 23.4892 3.14466 23.9938 3.00928L24.4 4.49235C23.92 4.64005 23.44 4.78774 22.9661 4.92312Z" fill="#212833"/>
<path d="M26.1477 4.09228L25.8462 2.58459C26.357 2.47382 26.88 2.38151 27.397 2.30151L27.6308 3.82151C27.1262 3.90151 26.6339 3.98767 26.1477 4.09228Z" fill="#212833"/>
<path d="M29.403 3.60611L29.2676 2.0738C29.7907 2.02457 30.3199 1.9938 30.843 1.97534L30.8983 3.50765C30.3999 3.52611 29.9014 3.56303 29.403 3.60611Z" fill="#212833"/>
<path d="M36.8185 56H27.2123L25.5323 48.8985C25.2369 48.7877 24.9169 48.6708 24.6585 48.5415L18.4615 52.3631L11.6431 45.5385L15.4646 39.3846C15.3538 39.12 15.2369 38.8369 15.1138 38.5231L8 36.8062V27.1938L15.0892 25.4892C15.2 25.2123 15.3169 24.9231 15.44 24.64L11.6431 18.4615L18.4615 11.6246L24.6708 15.4523C24.9538 15.3231 25.2492 15.2062 25.5262 15.0954L27.2123 8H36.8185L38.4985 15.0892C38.8246 15.2123 39.1138 15.3292 39.3723 15.4462L45.5815 11.6185L52.3877 18.4615L48.56 24.6154C48.6892 24.9108 48.8123 25.2308 48.9169 25.4892L56 27.1692V36.8062L48.9169 38.4923C48.7938 38.8123 48.6769 39.1077 48.56 39.36L52.3877 45.5385L45.5815 52.3631L39.3846 48.5415C39.0892 48.6708 38.7692 48.7877 38.5108 48.8985L36.8185 56ZM28.4246 54.4615H35.6062L37.1938 47.7477L37.5815 47.6062C38.0923 47.4322 38.5917 47.2267 39.0769 46.9908L39.4585 46.8L45.3538 50.4308L50.4615 45.3292L46.8308 39.4523L47.0215 39.0708C47.2522 38.5832 47.4576 38.0841 47.6369 37.5754L47.7785 37.1815L54.4862 35.5938V28.3877L47.7785 26.8185L47.6369 26.4246C47.458 25.9158 47.2525 25.4166 47.0215 24.9292L46.8308 24.5477L50.4615 18.6585L45.3538 13.5754L39.4646 17.2308L39.0831 17.0462C38.5945 16.813 38.0932 16.6075 37.5815 16.4308L37.1938 16.2892L35.6062 9.58154H28.4246L26.8185 16.2462L26.4369 16.3877C25.9325 16.5678 25.4376 16.7732 24.9538 17.0031L24.5723 17.1938L18.6769 13.5631L13.5938 18.6462L17.2308 24.5415L17.0462 24.9231C16.8185 25.4031 16.6092 25.9446 16.4308 26.4185L16.2831 26.7938L9.56308 28.4062V35.5938L16.2708 37.1815L16.4123 37.5692C16.6338 38.1846 16.8308 38.6585 17.0277 39.0892L17.2 39.4646L13.5877 45.3292L18.6708 50.4185L24.5662 46.7692L24.9477 46.9538C25.4307 47.19 25.9281 47.3955 26.4369 47.5692L26.8369 47.7046L28.4246 54.4615Z" fill="#212833"/>
<path d="M32.6155 38.3323H31.434V40.32H30.0863V38.3323H27.957V25.6616H30.0863V23.6677H31.434V25.6616H32.6155V23.6677H33.9632V25.68C34.7924 25.7329 35.5707 26.0979 36.1416 26.7016C36.6718 27.3177 36.9508 28.1107 36.9232 28.9231C36.9309 29.3026 36.8683 29.6802 36.7386 30.037C36.6256 30.3338 36.4587 30.6071 36.2463 30.8431C36.0413 31.057 35.7995 31.2321 35.5324 31.36C35.2559 31.4924 34.9615 31.5836 34.6586 31.6308V31.7477C34.9835 31.8066 35.3042 31.8868 35.6186 31.9877C35.9411 32.0974 36.2412 32.2642 36.5047 32.48C36.7811 32.716 37.0017 33.0102 37.1509 33.3416C37.3336 33.7558 37.4198 34.2061 37.4032 34.6585C37.4087 35.1565 37.3211 35.6512 37.1447 36.117C36.9798 36.546 36.7332 36.9389 36.4186 37.2739C36.111 37.601 35.7405 37.8626 35.3293 38.0431C34.8998 38.2353 34.4337 38.3319 33.9632 38.3262V40.3139H32.6155V38.3323ZM29.5386 31.1262H33.3416C33.8505 31.1707 34.3564 31.0138 34.7509 30.6893C34.9105 30.5125 35.0327 30.3053 35.1099 30.0799C35.1871 29.8546 35.2178 29.616 35.2001 29.3785V28.837C35.2178 28.5994 35.1871 28.3608 35.1099 28.1355C35.0327 27.9102 34.9105 27.7029 34.7509 27.5262C34.3659 27.2011 33.8688 27.0398 33.3663 27.077H29.5386V31.1262ZM29.5386 36.9231H33.4216C34.015 36.9496 34.5994 36.7715 35.077 36.4185C35.2836 36.2489 35.4471 36.0328 35.554 35.7878C35.661 35.5429 35.7084 35.2761 35.6924 35.0093V34.3939C35.7079 34.1271 35.6603 33.8605 35.5533 33.6156C35.4464 33.3708 35.2832 33.1546 35.077 32.9846C34.5979 32.6418 34.0161 32.4725 33.4278 32.5046H29.5386V36.9231Z" fill="#212833"/>
<defs>
<linearGradient id="paint0_linear" x1="23.44" y1="40.5661" x2="40.5908" y2="23.4215" gradientUnits="userSpaceOnUse">
<stop stop-color="#F0B90B"/>
<stop offset="0.26" stop-color="#F1BD10"/>
<stop offset="0.59" stop-color="#F5C720"/>
<stop offset="0.96" stop-color="#FAD839"/>
<stop offset="0.99" stop-color="#FBDA3C"/>
</linearGradient>
</defs>
</svg>
