<svg width="64" height="64" viewBox="0 0 64 64" fill="none" xmlns="http://www.w3.org/2000/svg">
<path d="M50.1847 16.4V35.2554L56 31.163V20.363L50.1847 16.4ZM32 4.01843L20.2216 12.0554H43.8031L32 4.01843ZM8.05542 20.363V31.163L13.877 35.2615V16.3877L8.05542 20.363Z" fill="url(#paint0_linear)"/>
<path d="M50.1847 35.2553V12.0553H13.877V35.2615L8.05542 31.163V55.9999H56V31.163L50.1847 35.2553ZM15.4154 13.5938H48.6462V36.363L32.0308 48.0553L15.4154 36.363V13.5938ZM10.3139 54.4615L18.5416 42.7076L17.28 41.8461L9.59388 52.7999V34.1291L32.0308 49.9199L54.4616 34.1291V52.8061L46.7693 41.8461L45.5385 42.7076L53.7416 54.4615H10.3139Z" fill="#212833"/>
<path d="M32.0309 24.4061C32.2147 24.4061 32.3943 24.4606 32.5471 24.5627C32.6999 24.6648 32.819 24.81 32.8894 24.9798C32.9597 25.1496 32.9781 25.3364 32.9423 25.5167C32.9064 25.6969 32.8179 25.8625 32.6879 25.9924C32.558 26.1224 32.3924 26.2109 32.2122 26.2467C32.0319 26.2826 31.8451 26.2642 31.6753 26.1939C31.5055 26.1235 31.3604 26.0044 31.2582 25.8516C31.1561 25.6988 31.1016 25.5192 31.1016 25.3354C31.1033 25.0894 31.2017 24.854 31.3756 24.6801C31.5495 24.5062 31.7849 24.4078 32.0309 24.4061ZM32.0309 22.8677C31.544 22.8677 31.0681 23.012 30.6633 23.2825C30.2585 23.553 29.943 23.9374 29.7567 24.3872C29.5704 24.837 29.5217 25.3319 29.6166 25.8094C29.7116 26.2869 29.9461 26.7255 30.2903 27.0698C30.6346 27.414 31.0732 27.6485 31.5507 27.7435C32.0281 27.8384 32.5231 27.7897 32.9729 27.6034C33.4227 27.4171 33.8071 27.1016 34.0776 26.6968C34.348 26.292 34.4924 25.8161 34.4924 25.3292C34.4924 24.6764 34.2331 24.0503 33.7714 23.5886C33.3098 23.127 32.6837 22.8677 32.0309 22.8677Z" fill="#212833"/>
<path d="M34.2277 30.3262C34.5541 30.3262 34.8671 30.4559 35.098 30.6867C35.3288 30.9175 35.4584 31.2305 35.4584 31.557V32.2585H28.5846V31.5693C28.5846 31.2428 28.7143 30.9298 28.9451 30.699C29.1759 30.4682 29.4889 30.3385 29.8154 30.3385H34.2092L34.2277 30.3262ZM34.2092 28.8H29.8338C29.1041 28.8081 28.4066 29.1019 27.8911 29.6186C27.3756 30.1352 27.0833 30.8333 27.0769 31.5631V33.8031H37.0461V31.5631C37.0429 30.8259 36.7477 30.12 36.2253 29.5999C35.7029 29.0797 34.9957 28.7877 34.2584 28.7877L34.2092 28.8Z" fill="#212833"/>
<path d="M31.8277 41.5015C31.286 41.4924 30.7455 41.4493 30.2092 41.3723L30.4308 39.8523C30.9017 39.92 31.3766 39.957 31.8523 39.9631L31.8277 41.5015Z" fill="#212833"/>
<path d="M33.7722 41.3846L33.563 39.8584C34.0326 39.7935 34.4972 39.6968 34.9538 39.5692L35.3661 41.0523C34.8431 41.1995 34.3105 41.3106 33.7722 41.3846Z" fill="#212833"/>
<path d="M28.3078 40.9415C27.7896 40.7715 27.2838 40.5659 26.7939 40.3261L27.4093 38.9292C27.8415 39.1265 28.2854 39.2971 28.7386 39.44L28.3078 40.9415Z" fill="#212833"/>
<path d="M37.2001 40.3876L36.5847 38.9907C37.008 38.7919 37.419 38.5679 37.8155 38.3199L38.6278 39.6246C38.1692 39.91 37.6922 40.1649 37.2001 40.3876Z" fill="#212833"/>
<path d="M25.0892 39.3846C24.6375 39.0826 24.2058 38.7516 23.7969 38.3939L24.8123 37.2369C25.1682 37.5682 25.5465 37.8746 25.9446 38.1539L25.0892 39.3846Z" fill="#212833"/>
<path d="M40.203 38.4677L39.2 37.3047C39.5613 36.9944 39.9026 36.6615 40.2215 36.3077L41.3661 37.3354C41.0046 37.7389 40.6161 38.1172 40.203 38.4677Z" fill="#212833"/>
<path d="M22.4307 37.0277C22.0828 36.6141 21.7621 36.1783 21.4707 35.7231L22.7692 34.8923C23.0272 35.2938 23.3108 35.6782 23.6184 36.0431L22.4307 37.0277Z" fill="#212833"/>
<path d="M42.5538 35.7846L41.2615 34.9477C41.5189 34.5525 41.7512 34.1414 41.9569 33.7169L43.3476 34.3815C43.1118 34.8649 42.8467 35.3335 42.5538 35.7846Z" fill="#212833"/>
<path d="M20.5477 34C20.3295 33.5041 20.1444 32.9943 19.9939 32.4739L21.4708 32.0431C21.6053 32.4998 21.7676 32.9478 21.957 33.3846L20.5477 34Z" fill="#212833"/>
<path d="M44.043 32.5477L42.5723 32.1107C42.7074 31.6546 42.8122 31.19 42.8861 30.72L44.4061 30.9661C44.3187 31.5005 44.1974 32.0287 44.043 32.5477Z" fill="#212833"/>
<path d="M19.6 30.5662C19.531 30.0356 19.4961 29.5012 19.4954 28.9662H21.0338V29.0462C21.0356 29.4949 21.0664 29.943 21.1261 30.3877L19.6 30.5662Z" fill="#212833"/>
<path d="M43.0276 29.0154V28.9661C43.0277 28.4908 42.9969 28.0159 42.9353 27.5446L44.4615 27.3477C44.5304 27.8844 44.5653 28.425 44.5661 28.9661L43.0276 29.0154Z" fill="#212833"/>
<path d="M21.1692 27.2431L19.6492 27.0031C19.7368 26.4673 19.856 25.9371 20.0061 25.4154L21.483 25.8523C21.3466 26.3082 21.2417 26.7729 21.1692 27.2431Z" fill="#212833"/>
<path d="M42.5846 25.8461C42.4498 25.3887 42.2853 24.9406 42.0923 24.5045L43.5015 23.8892C43.7218 24.3849 43.9089 24.8948 44.0615 25.4153L42.5846 25.8461Z" fill="#212833"/>
<path d="M22.0924 24.2523L20.7078 23.5938C20.938 23.0968 21.2011 22.6157 21.4955 22.1538L22.7693 23.0092C22.5177 23.4089 22.2916 23.8241 22.0924 24.2523Z" fill="#212833"/>
<path d="M41.2862 23.0278C41.0297 22.6272 40.7459 22.2448 40.437 21.8832L41.6124 20.8862C41.9623 21.3019 42.2851 21.7397 42.5786 22.197L41.2862 23.0278Z" fill="#212833"/>
<path d="M23.8278 21.6493L22.677 20.6278C23.0393 20.2234 23.4257 19.8411 23.8339 19.4832L24.8432 20.6462C24.4836 20.9586 24.1445 21.2936 23.8278 21.6493Z" fill="#212833"/>
<path d="M39.2368 20.6645C38.8776 20.3497 38.4972 20.0597 38.0984 19.7968L38.9476 18.5168C39.4012 18.8168 39.8349 19.1456 40.2461 19.5015L39.2368 20.6645Z" fill="#212833"/>
<path d="M26.2215 19.6307L25.4031 18.3261C25.8656 18.042 26.3444 17.7852 26.8369 17.5569L27.4523 18.96C27.029 19.1587 26.618 19.3827 26.2215 19.6307Z" fill="#212833"/>
<path d="M36.6032 18.9661C36.1724 18.7671 35.7282 18.5985 35.2739 18.4615L35.7293 16.9907C36.2482 17.1497 36.756 17.3429 37.2493 17.5692L36.6032 18.9661Z" fill="#212833"/>
<path d="M29.083 18.3754L28.6707 16.8924C29.1935 16.7445 29.7261 16.6335 30.2645 16.5601L30.4799 18.0801C30.0081 18.1471 29.5415 18.2458 29.083 18.3754Z" fill="#212833"/>
<path d="M33.6061 18.0861C33.1352 18.0184 32.6603 17.9814 32.1846 17.9754V16.4369C32.7264 16.4432 33.2671 16.4864 33.803 16.5661L33.6061 18.0861Z" fill="#212833"/>
<defs>
<linearGradient id="paint0_linear" x1="17.3416" y1="40.4492" x2="46.7139" y2="11.0769" gradientUnits="userSpaceOnUse">
<stop stop-color="#F0B90B"/>
<stop offset="0.26" stop-color="#F1BD10"/>
<stop offset="0.59" stop-color="#F5C720"/>
<stop offset="0.96" stop-color="#FAD839"/>
<stop offset="0.99" stop-color="#FBDA3C"/>
</linearGradient>
</defs>
</svg>
