<?xml version="1.0" encoding="UTF-8"?>
<svg width="370px" height="200px" viewBox="0 0 370 200" version="1.1" xmlns="http://www.w3.org/2000/svg" xmlns:xlink="http://www.w3.org/1999/xlink">
    <title>暂无数据</title>
    <defs>
        <linearGradient x1="-46.2810869%" y1="-185.963888%" x2="68.7253303%" y2="100%" id="linearGradient-1">
            <stop stop-color="#D2D2D2" offset="0%"></stop>
            <stop stop-color="#D2D2D2" stop-opacity="0" offset="100%"></stop>
        </linearGradient>
        <linearGradient x1="118.475166%" y1="-110.864112%" x2="54.4676254%" y2="55.5871768%" id="linearGradient-2">
            <stop stop-color="#D2D2D2" offset="0%"></stop>
            <stop stop-color="#D2D2D2" stop-opacity="0" offset="100%"></stop>
        </linearGradient>
        <linearGradient x1="50%" y1="-221.156912%" x2="50%" y2="100%" id="linearGradient-3">
            <stop stop-color="#D2D2D2" offset="0%"></stop>
            <stop stop-color="#D2D2D2" stop-opacity="0" offset="100%"></stop>
        </linearGradient>
        <linearGradient x1="99.7000438%" y1="-97.780461%" x2="38.911293%" y2="104.736078%" id="linearGradient-4">
            <stop stop-color="#D2D2D2" offset="0%"></stop>
            <stop stop-color="#D2D2D2" stop-opacity="0" offset="100%"></stop>
        </linearGradient>
        <linearGradient x1="50%" y1="-230.116303%" x2="50%" y2="100%" id="linearGradient-5">
            <stop stop-color="#D2D2D2" offset="0%"></stop>
            <stop stop-color="#D2D2D2" stop-opacity="0" offset="100%"></stop>
        </linearGradient>
        <linearGradient x1="50%" y1="-169.203289%" x2="50%" y2="100%" id="linearGradient-6">
            <stop stop-color="#D2D2D2" offset="0%"></stop>
            <stop stop-color="#D2D2D2" stop-opacity="0" offset="100%"></stop>
        </linearGradient>
        <linearGradient x1="50.0240964%" y1="7.13818556%" x2="50.0240964%" y2="84.6398206%" id="linearGradient-7">
            <stop stop-color="#D7D7D7" offset="0%"></stop>
            <stop stop-color="#E4E4E4" offset="100%"></stop>
        </linearGradient>
        <linearGradient x1="50.0755967%" y1="1.21891189%" x2="49.5942108%" y2="95.1595134%" id="linearGradient-8">
            <stop stop-color="#F4F4F4" offset="0%"></stop>
            <stop stop-color="#DDDDDE" offset="96%"></stop>
        </linearGradient>
        <linearGradient x1="49.9999958%" y1="91.2695941%" x2="49.9999958%" y2="6.71649538%" id="linearGradient-9">
            <stop stop-color="#EAEAEA" offset="0%"></stop>
            <stop stop-color="#EFEFF0" offset="100%"></stop>
        </linearGradient>
        <linearGradient x1="-9.69165366%" y1="-62.5738212%" x2="110.417506%" y2="95.2905165%" id="linearGradient-10">
            <stop stop-color="#FFFFFF" offset="0%"></stop>
            <stop stop-color="#478FFC" offset="100%"></stop>
        </linearGradient>
        <linearGradient x1="130.853945%" y1="-35.095306%" x2="130.853945%" y2="116.960465%" id="linearGradient-11">
            <stop stop-color="#FFFFFF" offset="0%"></stop>
            <stop stop-color="#478FFC" offset="100%"></stop>
        </linearGradient>
        <linearGradient x1="130.853945%" y1="-89.3870885%" x2="130.853945%" y2="100%" id="linearGradient-12">
            <stop stop-color="#FFFFFF" offset="0%"></stop>
            <stop stop-color="#478FFC" offset="100%"></stop>
        </linearGradient>
        <linearGradient x1="90.5046475%" y1="-178.691094%" x2="74.7013746%" y2="116.960465%" id="linearGradient-13">
            <stop stop-color="#FFFFFF" offset="0%"></stop>
            <stop stop-color="#478FFC" offset="100%"></stop>
        </linearGradient>
    </defs>
    <g id="页面-1" stroke="none" stroke-width="1" fill="none" fill-rule="evenodd">
        <g id="兑换记录" transform="translate(-190.000000, -819.000000)">
            <g id="暂无数据" transform="translate(190.000000, 819.000000)">
                <g id="编组-2备份-6" transform="translate(0.000000, 0.000000)" fill-rule="nonzero">
                    <path d="M73.1567373,159.940208 C65.2542315,156.351297 56.6859922,146.723115 59.1146874,137.664207 C60.3294401,137.352109 61.6075151,137.849382 62.295415,138.901762 C62.295415,138.901762 76.0045981,160.398104 72.1581367,140.621965 C70.3458615,131.327923 67.2267759,122.343269 66.9802079,112.739837 C66.5733706,95.2903034 82.5263227,90.451461 87.1124882,109.732577 C87.7165799,112.281942 90.0343195,133.010998 95.3108755,130.634891 C95.9905122,130.276068 96.5420339,129.713786 96.888911,129.026069 C99.5641742,124.620371 100.36552,118.147956 105.272224,116.650514 C109.574837,115.289202 113.815807,119.038996 116.133546,122.912544 C120.830668,130.783398 127.118152,150.349151 117.501999,156.98245 C107.885845,163.615748 83.6235504,164.66767 73.243036,160.026836 L73.1567373,159.940208 Z" id="路径" fill="url(#linearGradient-1)"></path>
                    <path d="M272.802878,180.867273 C269.326269,172.885039 269.412567,159.977335 277.302745,154.878605 C278.417871,155.48027 279.020139,156.73438 278.794482,157.98487 C278.794482,157.98487 274.590497,183.169126 284.958683,165.905226 C289.890043,157.774486 293.588564,149.024968 299.752766,141.735765 C311.082567,128.444418 326.184859,135.659367 316.704318,153.047023 C315.471477,155.348877 303.315674,172.278637 308.814141,174.085468 C309.558539,174.269234 310.340978,174.221763 311.05791,173.949337 C315.989271,172.489021 320.920631,168.231831 325.580767,170.385177 C329.673796,172.278637 330.314874,177.89714 329.451885,182.339964 C327.676595,191.336993 318.974709,201.398334 307.410668,199.839013 C295.600059,198.230191 277.389044,191.386495 272.839863,180.953902 L272.802878,180.867273 Z" id="路径" fill="url(#linearGradient-2)"></path>
                    <path d="M370,199.839 C323.509596,167.823437 257.811542,147.861665 185,147.861665 C112.188458,147.861665 46.4904038,167.823437 0,199.839 L370,199.839 Z" id="路径" fill="url(#linearGradient-3)"></path>
                    <path d="M293.058443,103.309664 C290.111955,107.02233 288.22571,112.281942 289.988671,116.984653 C291.209183,120.227049 294.883046,120.2518 294.62415,124.756502 C294.370653,127.005785 293.60275,129.165831 292.38038,131.068036 C290.297427,134.725276 287.744075,138.09145 284.786085,141.079861 C287.25175,143.010517 288.506076,146.113527 288.077768,149.222977 C287.594196,152.30932 286.138112,155.158892 283.923097,157.353717 C283.270902,158.154299 282.42063,158.768837 281.457417,159.135797 C280.52452,159.352095 279.554781,159.352095 278.621885,159.135797 C274.035029,158.354339 269.581417,156.925231 265.393509,154.890981 C262.779888,153.64105 260.116952,151.933223 259.229308,149.210601 C258.212215,146.085773 259.829354,145.092828 261.59458,144.113781 L262.050192,143.860999 C262.961685,143.350712 263.855982,142.796085 264.394908,141.909022 C265.68939,139.780428 265.726375,136.934049 266.182527,134.557942 C266.84826,131.05566 265.861988,124.669874 270.226242,123.296186 C271.915233,122.764038 273.752165,122.887794 275.441156,122.343269 C279.110226,121.171029 280.629169,117.706408 282.099769,114.203272 L282.367085,113.566416 C283.214865,111.551538 284.088845,109.569174 285.390176,108.049502 C287.239437,105.88378 291.825603,104.819481 293.058443,103.309664 Z M282.406703,124.088223 C282.406703,124.088223 269.129015,139.63192 269.560509,153.999941 L273.850793,153.999941 C273.850793,153.999941 275.404171,136.674162 282.406703,124.088223 Z" id="形状结合" fill="url(#linearGradient-4)"></path>
                    <path d="M103.99007,22.0641388 L103.99007,22.0641388 C104.058653,17.2668931 100.645178,13.1303856 95.9369394,12.3052168 C91.2287015,11.4800481 86.6208326,14.21073 85.0659735,18.7474898 C82.099542,18.689119 79.3380166,20.2610899 77.8650948,22.8465184 C76.3921732,25.431947 76.4428644,28.6183201 77.9972758,31.1552184 C79.5516873,33.6921168 82.3618078,35.1747705 85.3248699,35.0213459 L103.188724,35.0213459 C106.580504,34.9759306 109.36433,32.3142448 109.574512,28.9157323 C109.784695,25.5172197 107.350209,22.530331 103.99007,22.0641388 L103.99007,22.0641388 Z" id="路径" fill="url(#linearGradient-5)"></path>
                    <path d="M177.82487,12.2379474 L177.82487,12.1760697 C177.817605,6.24662909 173.561024,1.18250918 167.739635,0.177510599 C161.918247,-0.827487981 156.220851,2.51818745 154.240637,8.10451172 C148.640408,8.19336453 144.172282,12.8226404 144.260796,18.4442887 C144.349309,24.0659371 148.960947,28.5511541 154.561176,28.4623013 L176.752299,28.4623013 C181.027783,28.4699497 184.570559,25.1357114 184.838273,20.8522889 C185.105987,16.5688664 182.006138,12.8162818 177.763228,12.2874496 L177.82487,12.2379474 Z" id="路径" fill="url(#linearGradient-6)"></path>
                </g>
                <g id="资源-1" transform="translate(116.836265, 54.130682)" fill-rule="nonzero">
                    <path d="M96.8786917,12.0290404 L119.589035,12.0290404 C119.901638,12.0290404 119.827573,12.2559023 120.045849,12.4600042 C120.30639,12.7036256 120.291391,12.9739999 120.291391,13.3733882 L121.829268,45.1089015 L96.8642542,45.1089015 L96.8642542,12.0383125 L96.8786917,12.0290404 Z" id="路径" fill="url(#linearGradient-7)"></path>
                    <path d="M12.9818073,18.2594072 L12.9818073,132.319444 L84.3830403,132.319444 C93.7245956,132.317731 101.296581,124.143218 101.296581,114.060038 L101.296581,24.9124441 C101.296581,18.5478605 104.841016,13.0021123 110.731732,12.8160133 C113.643158,12.7195187 115.467986,13.9003755 117.559076,16.0890984 C119.650167,18.2778214 120.830668,21.2876434 120.830668,24.4316884 L120.830668,18.2594072 C120.830668,8.17501504 115.254133,0 105.911454,0 L29.8982215,0 C20.5555438,0 12.9818073,8.17501504 12.9818073,18.2594072 Z" id="路径" fill="url(#linearGradient-8)"></path>
                    <path d="M90.7695727,121.826969 C84.8781678,121.636538 80.3396892,116.051582 80.3396892,109.651827 L80.3396892,102.246843 L0,102.246843 L0,115.633256 C0,124.848784 6.87389361,132.319444 15.3532711,132.319444 L86.5068498,132.319444 C94.9851054,132.31772 101.857266,124.847565 101.857266,115.633256 L101.857266,110.123223 C101.860931,113.289048 100.683453,116.321233 98.5938706,118.52692 C96.504288,120.732606 93.6811599,121.923316 90.7695727,121.826969 L90.7695727,121.826969 Z" id="路径" fill="url(#linearGradient-9)"></path>
                    <rect id="矩形" fill="#FFFFFF" x="26.9622151" y="23.0556608" width="58.917433" height="6.0145202" rx="2"></rect>
                    <rect id="矩形" fill="#FFFFFF" x="26.9622151" y="42.1016414" width="58.917433" height="6.0145202" rx="2"></rect>
                    <rect id="矩形" fill="#FFFFFF" x="26.9622151" y="61.147622" width="58.917433" height="6.0145202" rx="2"></rect>
                    <rect id="矩形" fill="#FFFFFF" x="26.9622151" y="80.1936026" width="36.9482207" height="6.0145202" rx="2"></rect>
                </g>
                <g id="编组-3" transform="translate(192.729908, 117.283144)">
                    <ellipse id="椭圆形" stroke="url(#linearGradient-10)" stroke-width="7" cx="25.8033453" cy="26.3723098" rx="25.8033453" ry="26.3723098"></ellipse>
                    <ellipse id="椭圆形" fill="url(#linearGradient-11)" fill-rule="nonzero" opacity="0.400320871" cx="25.8033453" cy="26.3723098" rx="23.3499933" ry="23.4393029"></ellipse>
                    <ellipse id="椭圆形" fill="#FFFFFF" fill-rule="nonzero" opacity="0.400320871" cx="25.8033453" cy="26.3723098" rx="23.3499933" ry="23.4393029"></ellipse>
                    <path d="M12.3012105,29.4909499 L12.3012105,29.4909499 C9.70983721,29.4909499 7.60586423,27.3863609 7.5942956,24.7825988 C7.5942956,24.0013925 7.70986717,17.0233207 12.6689382,12.0404917 C15.7053186,9.00012159 19.9079212,7.44826597 24.8669922,7.43770914 C27.4781546,7.45520028 29.5808084,9.59628606 29.5636139,12.2199581 C29.5459929,14.84363 27.4151157,16.9563571 24.8039532,16.9388659 C20.4962856,16.9388659 18.9938551,18.8707678 18.2058671,20.3487256 C17.5141739,21.7284141 17.1203381,23.2393549 17.0501514,24.7825988 C17.0156601,27.3931622 14.8995558,29.4911799 12.3012105,29.4909499 Z" id="路径" fill="#FFFFFF" fill-rule="nonzero"></path>
                    <polygon id="矩形" fill="url(#linearGradient-12)" fill-rule="nonzero" transform="translate(58.732038, 60.533516) rotate(-46.860000) translate(-58.732038, -60.533516) " points="52.6655682 48.0464599 64.8461277 48.0232619 64.7985084 73.0205713 52.6179489 73.0437693"></polygon>
                    <polygon id="矩形" fill="url(#linearGradient-13)" fill-rule="nonzero" transform="translate(47.904527, 50.343086) rotate(-46.860000) translate(-47.904527, -50.343086) " points="45.3561848 45.710362 50.4705375 45.7006217 50.4528685 54.9758091 45.3385158 54.9855495"></polygon>
                </g>
            </g>
        </g>
    </g>
</svg>